<svg height="100%" style="fill-rule:nonzero;clip-rule:evenodd;stroke-linecap:round;stroke-linejoin:round;" xmlns:xlink="http://www.w3.org/1999/xlink" xmlns="http://www.w3.org/2000/svg" xml:space="preserve" width="100%" xmlns:vectornator="http://vectornator.io" version="1.1" viewBox="0 0 1024 1024">
<g id="レイヤー 1" vectornator:layerName="レイヤー 1">
<path stroke="#000000" stroke-width="11.0708" d="M513.75+79.1562C277.412+79.1563+85.8125+270.756+85.8125+507.094C85.8125+743.431+277.412+935+513.75+935C750.088+935+941.656+743.431+941.656+507.094C941.656+270.756+750.088+79.1562+513.75+79.1562ZM760.594+584C774.204+584+785.143+586.816+793.406+592.406C801.67+597.996+805.813+605.301+805.812+614.375C805.812+628.958+794.553+642.404+772.031+654.719L759.125+661.531C787.318+668.337+801.438+686.071+801.438+714.75C801.438+736.3+789.186+757.435+764.719+778.094C740.252+798.753+710.674+809.062+676+809.062C649.103+809.062+627.635+802.267+611.594+788.656L644.656+750.25C656.647+772.772+673.186+784.031+694.25+784.031C705.754+784.031+716.196+780.109+725.594+772.25C734.992+764.392+739.688+752.592+739.688+736.875C739.688+725.209+736.129+715.905+729+708.938C721.871+701.97+713.296+698.469+703.25+698.469C697.417+698.469+690.445+699.462+682.344+701.406L671.875+703.812L671.875+687.531L686.469+682.438C726.49+668.665+746.5+653.119+746.5+635.781C746.5+628.49+744.501+623.109+740.531+619.625C736.561+616.141+731.997+614.375+726.812+614.375C713.526+614.375+700.897+620.297+688.906+632.125L681.375+605.406C702.763+591.148+729.16+584+760.594+584ZM325.125+654.031L299.344+788.625L335.094+793.844L326.125+805.281L218.812+805.281L229.438+791.562L259.656+787.969L278.906+687.531L244.938+696.844L236.125+684.906L325.125+654.031ZM456.594+657.812C473.144+657.812+485.088+663.323+492.438+674.375C499.787+685.427+503.469+699.846+503.469+717.594C503.469+732.402+500.142+746.884+493.5+761.094C486.858+775.303+476.736+786.923+463.125+795.906C449.514+804.889+433.968+809.375+416.438+809.375C402.065+809.375+390.713+804.274+382.438+794.094C374.162+783.913+370.031+769.447+370.031+750.719C370.031+724.151+378.419+702.037+395.188+684.344C411.956+666.65+432.422+657.813+456.594+657.812ZM448.938+672.812C438.049+672.812+428.904+682.793+421.5+702.719C414.096+722.645+410.375+744.135+410.375+767.219C410.375+775.385+411.66+781.991+414.219+787C416.778+792.009+420.333+794.5+424.906+794.5C430.895+794.5+436.934+790.684+443.031+783.062C449.129+775.441+454.048+763.402+457.75+746.906C461.452+730.41+463.313+714.304+463.312+698.625C463.312+691.548+462.075+685.469+459.625+680.406C457.175+675.343+453.62+672.813+448.938+672.812ZM571.781+762.156C576.293+772.884+581.932+781.788+588.75+788.906L561.688+810.281C553.466+801.96+547.491+793.025+543.781+783.5L571.781+762.156Z" fill="#ffffff" stroke-linecap="round" opacity="1" stroke-linejoin="round"/>
</g>
<g id="レイヤー 3" vectornator:layerName="レイヤー 3">
<path stroke="#000000" stroke-width="11.0708" d="M746.188+378.281L746.188+416.969L741.375+416.969L661.719+467.75L662.375+772.688C671.505+780.178+682.103+784.031+694.25+784.031C705.754+784.031+716.196+780.109+725.594+772.25C734.992+764.392+739.688+752.592+739.688+736.875C739.688+725.209+736.129+715.905+729+708.938C721.871+701.97+713.296+698.469+703.25+698.469C697.417+698.469+690.445+699.462+682.344+701.406L671.875+703.812L671.875+687.531L686.469+682.438C726.49+668.665+746.5+653.119+746.5+635.781C746.5+628.49+744.501+623.109+740.531+619.625C736.561+616.141+731.997+614.375+726.812+614.375C713.526+614.375+700.897+620.297+688.906+632.125L681.375+605.406C702.763+591.148+729.16+584+760.594+584C774.204+584+785.143+586.816+793.406+592.406C801.67+597.996+805.813+605.301+805.812+614.375C805.812+628.958+794.553+642.404+772.031+654.719L759.125+661.531C787.318+668.337+801.438+686.071+801.438+714.75C801.438+736.3+789.186+757.435+764.719+778.094C740.252+798.753+710.674+809.062+676+809.062C671.3+809.062+666.837+808.791+662.469+808.375L662.688+908.344C811.288+853.158+920.874+717.796+938.969+554.812L887.969+554.812L869.25+579.531L813.75+579.875L813.75+416.969L802.875+416.969L802.875+378.281L746.188+378.281ZM302.812+380.469L302.812+661.781L325.125+654.031L302.812+770.531L302.812+789.125L335.094+793.844L326.125+805.281L302.812+805.281L302.812+879.375C365.077+914.729+437.032+935+513.75+935C564.67+935+613.485+926.1+658.781+909.781L658.781+807.969C639.799+805.602+624.04+799.217+611.594+788.656L644.656+750.25C648.807+758.046+653.544+764.403+658.781+769.5L658.781+519.469L595.5+519.469L595.5+481.781L504.625+481.781L504.625+481.281L445.812+426.625L419.125+426.625L419.125+380.469L302.812+380.469ZM218.625+403.938L183.438+433.875L183.969+535.438L125.406+535.438L125.406+686.875C161.556+764.823+220.409+830.077+293.562+874.062L293.562+805.281L218.812+805.281L229.438+791.562L259.656+787.969L278.906+687.531L244.938+696.844L236.125+684.906L293.562+664.969L293.562+403.938L218.625+403.938ZM91+440.562C87.6161+462.242+85.8125+484.465+85.8125+507.094C85.8125+567.821+98.5359+625.548+121.344+677.875L121.344+503.594L95.6562+503.594L95.6562+440.562L91+440.562ZM456.594+657.812C473.144+657.812+485.088+663.323+492.438+674.375C499.787+685.427+503.469+699.846+503.469+717.594C503.469+732.402+500.142+746.884+493.5+761.094C486.858+775.303+476.736+786.923+463.125+795.906C449.514+804.889+433.968+809.375+416.438+809.375C402.065+809.375+390.713+804.274+382.438+794.094C374.162+783.913+370.031+769.447+370.031+750.719C370.031+724.151+378.419+702.037+395.188+684.344C411.956+666.65+432.422+657.813+456.594+657.812ZM448.938+672.812C438.049+672.812+428.904+682.793+421.5+702.719C414.096+722.645+410.375+744.135+410.375+767.219C410.375+775.385+411.66+781.991+414.219+787C416.778+792.009+420.333+794.5+424.906+794.5C430.895+794.5+436.934+790.684+443.031+783.062C449.129+775.441+454.048+763.402+457.75+746.906C461.452+730.41+463.313+714.304+463.312+698.625C463.312+691.548+462.075+685.469+459.625+680.406C457.175+675.343+453.62+672.813+448.938+672.812ZM571.781+762.156C576.293+772.884+581.932+781.788+588.75+788.906L561.688+810.281C553.466+801.96+547.491+793.025+543.781+783.5L571.781+762.156Z" fill="#000000" stroke-linecap="round" opacity="1" stroke-linejoin="round"/>
</g>
<g id="レイヤー 4" vectornator:layerName="レイヤー 4" visibility="hidden">
<path d="M450.936+437.812L499.608+481.175L499.608+555.379L493.761+484.923L450.936+437.812Z" opacity="1" fill="#ffffff"/>
<path d="M412.12+380.982L416.25+380.982L418.429+383.213L418.141+587.224L417.931+587.406L412.12+380.982Z" opacity="1" fill="#ffffff"/>
<path d="M220.047+402.85L292.97+402.479L294.554+403.956L294.577+413.436L220.079+402.807L220.047+402.85Z" opacity="1" fill="#ffffff"/>
<path d="M745.737+415.765L816.297+415.765L816.297+451.098L812.897+419.437L745.737+415.765Z" opacity="1" fill="#ffffff"/>
<path d="M560.478+480.549L594.497+480.549L596.255+481.122L596.858+482.954L596.858+515.327L592.638+491.087L560.478+480.549Z" opacity="1" fill="#ffffff"/>
<path d="M113.368+502.444L121.33+502.444L121.33+631.379L121.504+631.983L113.368+502.444Z" opacity="1" fill="#ffffff"/>
</g>
<g id="レイヤー 6" vectornator:layerName="レイヤー 6" visibility="hidden">
<g opacity="1">
<path d="M486.092+877.958C485.945+877.481+485.634+876.656+485.157+875.483C484.68+874.309+483.956+873.109+482.985+871.88C482.013+870.652+480.73+869.561+479.135+868.608C477.54+867.654+475.55+867.178+473.167+867.178C471.334+867.178+469.684+867.636+468.217+868.553C466.75+869.469+465.504+870.698+464.477+872.238C463.45+873.778+462.653+875.574+462.085+877.628C461.516+879.681+461.232+881.826+461.232+884.063C461.232+887.216+461.59+890.223+462.305+893.083C463.02+895.943+464.019+898.464+465.302+900.645C466.585+902.827+468.144+904.559+469.977+905.843C471.81+907.126+473.845+907.768+476.082+907.768C477.989+907.768+479.703+907.392+481.225+906.64C482.746+905.889+484.13+904.862+485.377+903.56C486.624+902.259+487.742+900.737+488.732+898.995C489.722+897.254+490.657+895.393+491.537+893.413L499.677+895.613C498.724+899.279+497.404+902.543+495.717+905.403C494.03+908.263+492.023+910.683+489.695+912.663C487.366+914.643+484.735+916.146+481.802+917.173C478.869+918.199+475.679+918.713+472.232+918.713C468.345+918.713+464.697+917.97+461.287+916.485C457.877+915+454.907+912.984+452.377+910.435C449.847+907.887+447.849+904.917+446.382+901.525C444.915+898.134+444.182+894.531+444.182+890.718C444.182+887.968+444.54+885.3+445.255+882.715C445.97+880.13+446.978+877.71+448.28+875.455C449.581+873.2+451.14+871.147+452.955+869.295C454.77+867.444+456.786+865.858+459.005+864.538C461.223+863.218+463.597+862.191+466.127+861.458C468.657+860.724+471.279+860.358+473.992+860.358C476.889+860.358+479.419+860.541+481.582+860.908C483.745+861.274+485.661+861.861+487.33+862.668C488.998+863.474+490.52+864.529+491.895+865.83C493.27+867.132+494.635+868.718+495.992+870.588L486.092+877.958Z" opacity="1" fill="#ffffff"/>
<path d="M547.362+879.223C547.362+876.326+546.895+874.117+545.96+872.595C545.025+871.074+543.805+870.313+542.302+870.313C541.642+870.313+540.808+870.459+539.8+870.753C538.791+871.046+537.719+871.468+536.582+872.018C535.445+872.568+534.3+873.209+533.145+873.943C531.99+874.676+530.917+875.483+529.927+876.363L529.927+917.668L512.657+917.668L512.657+838.908L524.812+832.638L529.927+832.638L529.927+865.913C532.53+864.006+535.436+862.585+538.645+861.65C541.853+860.715+544.997+860.248+548.077+860.248C550.35+860.248+552.486+860.697+554.485+861.595C556.483+862.494+558.225+863.722+559.71+865.28C561.195+866.839+562.368+868.663+563.23+870.753C564.091+872.843+564.522+875.061+564.522+877.408L564.522+917.668L547.362+917.668L547.362+879.223Z" opacity="1" fill="#ffffff"/>
</g>
</g>
</svg>
